<svg width="18" height="19" viewBox="0 0 18 19" fill="none" xmlns="http://www.w3.org/2000/svg">
<g clip-path="url(#clip0_180_1304)">
<path d="M15.3502 7.02052L15.5347 6.59602C15.8591 5.84506 16.4532 5.24296 17.1998 4.90852L17.769 4.65427C17.8381 4.6225 17.8966 4.57159 17.9376 4.50759C17.9786 4.44358 18.0004 4.36916 18.0004 4.29314C18.0004 4.21712 17.9786 4.1427 17.9376 4.0787C17.8966 4.01469 17.8381 3.96379 17.769 3.93202L17.2313 3.69277C16.4659 3.3488 15.8617 2.72443 15.543 1.94827L15.3533 1.49002C15.3254 1.41903 15.2768 1.35809 15.2138 1.31514C15.1508 1.27218 15.0763 1.24921 15 1.24921C14.9237 1.24921 14.8492 1.27218 14.7862 1.31514C14.7232 1.35809 14.6746 1.41903 14.6467 1.49002L14.457 1.94752C14.1386 2.72382 13.5347 3.34847 12.7695 3.69277L12.231 3.93277C12.1621 3.96463 12.1039 4.01552 12.063 4.07945C12.0221 4.14337 12.0004 4.21765 12.0004 4.29352C12.0004 4.36938 12.0221 4.44366 12.063 4.50759C12.1039 4.57151 12.1621 4.62241 12.231 4.65427L12.801 4.90777C13.5474 5.24254 14.1412 5.84491 14.4653 6.59602L14.6498 7.02052C14.7848 7.33102 15.2145 7.33102 15.3502 7.02052ZM4.35 12.5H5.9655L6.4155 11.375H8.5845L9.0345 12.5H10.65L8.25 6.50002H6.75L4.35 12.5ZM7.5 8.66377L7.9845 9.87502H7.0155L7.5 8.66377ZM11.25 12.5V6.50002H12.75V12.5H11.25ZM2.25 2.75002C2.05109 2.75002 1.86032 2.82904 1.71967 2.96969C1.57902 3.11034 1.5 3.30111 1.5 3.50002V15.5C1.5 15.6989 1.57902 15.8897 1.71967 16.0303C1.86032 16.171 2.05109 16.25 2.25 16.25H15.75C15.9489 16.25 16.1397 16.171 16.2803 16.0303C16.421 15.8897 16.5 15.6989 16.5 15.5V8.75002H15V14.75H3V4.25002H10.5V2.75002H2.25Z" fill="#703BE7"/>
</g>
<defs>
<clipPath id="clip0_180_1304">
<rect width="18" height="18" fill="white" transform="translate(0 0.5)"/>
</clipPath>
</defs>
</svg>
