<svg width="20" height="20" viewBox="0 0 20 20" fill="none" xmlns="http://www.w3.org/2000/svg">
<path d="M13.5522 8.75H6.44771C4.29643 8.75 3.22078 8.75 2.72619 9.4605C2.23161 10.171 2.5992 11.1882 3.33438 13.2225L4.23788 15.7225C4.62121 16.7832 4.81288 17.3136 5.24075 17.6151C5.66863 17.9167 6.22948 17.9167 7.35119 17.9167H12.6488C13.7705 17.9167 14.3313 17.9167 14.7593 17.6151C15.1871 17.3136 15.3788 16.7832 15.7622 15.7225L16.6656 13.2225C17.4008 11.1882 17.7684 10.171 17.2738 9.4605C16.7792 8.75 15.7036 8.75 13.5522 8.75Z" stroke="#111336" stroke-width="1.5" stroke-linecap="square"/>
<path d="M15.8333 6.66666C15.8333 6.27837 15.8333 6.08423 15.7699 5.93109C15.6853 5.7269 15.5231 5.56466 15.3189 5.48009C15.1658 5.41666 14.9716 5.41666 14.5833 5.41666H5.41667C5.02838 5.41666 4.83424 5.41666 4.6811 5.48009C4.47691 5.56466 4.31468 5.7269 4.2301 5.93109C4.16667 6.08423 4.16667 6.27837 4.16667 6.66666" stroke="#111336" stroke-width="1.5" stroke-linecap="round" stroke-linejoin="round"/>
<path d="M13.75 3.33334C13.75 2.94506 13.75 2.75092 13.6866 2.59778C13.602 2.39359 13.4397 2.23135 13.2356 2.14678C13.0824 2.08334 12.8882 2.08334 12.5 2.08334H7.5C7.11172 2.08334 6.91758 2.08334 6.76443 2.14678C6.56024 2.23135 6.39801 2.39359 6.31343 2.59778C6.25 2.75092 6.25 2.94506 6.25 3.33334" stroke="#111336" stroke-width="1.5" stroke-linecap="round" stroke-linejoin="round"/>
</svg>
