<svg width="20" height="20" viewBox="0 0 20 20" fill="none" xmlns="http://www.w3.org/2000/svg">
<path d="M5.83333 17.5C4.94928 17.5 4.10143 17.1488 3.47631 16.5237C2.85119 15.8986 2.5 15.0507 2.5 14.1667V4.16667C2.5 3.72464 2.67559 3.30072 2.98816 2.98816C3.30072 2.67559 3.72464 2.5 4.16667 2.5H7.5C7.94203 2.5 8.36595 2.67559 8.67851 2.98816C8.99107 3.30072 9.16667 3.72464 9.16667 4.16667V14.1667C9.16667 15.0507 8.81548 15.8986 8.19036 16.5237M5.83333 17.5C6.71739 17.5 7.56523 17.1488 8.19036 16.5237M5.83333 17.5H15.8333C16.2754 17.5 16.6993 17.3244 17.0118 17.0118C17.3244 16.6993 17.5 16.2754 17.5 15.8333V12.5C17.5 12.058 17.3244 11.634 17.0118 11.3215C16.6993 11.0089 16.2754 10.8333 15.8333 10.8333H13.8808M8.19036 16.5237L15.2617 9.4525C15.5741 9.13995 15.7496 8.71611 15.7496 8.27417C15.7496 7.83223 15.5741 7.40838 15.2617 7.09583L12.9042 4.73833C12.5916 4.42588 12.1678 4.25036 11.7258 4.25036C11.2839 4.25036 10.86 4.42588 10.5475 4.73833L9.16667 6.11917M5.83333 14.1667H5.84167" stroke="#111336" stroke-width="1.5" stroke-linecap="round" stroke-linejoin="round"/>
</svg>
