<svg width="20" height="20" viewBox="0 0 20 20" fill="none" xmlns="http://www.w3.org/2000/svg">
<path d="M15 1.66666V3.33332M5 1.66666V3.33332" stroke="#111336" stroke-width="1.5" stroke-linecap="round" stroke-linejoin="round"/>
<path d="M9.99625 10.8333H10.0038M9.99625 14.1667H10.0038M13.3258 10.8333H13.3333M6.66667 10.8333H6.67414M6.66667 14.1667H6.67414" stroke="#111336" stroke-width="1.5" stroke-linecap="round" stroke-linejoin="round"/>
<path d="M2.91667 6.66666H17.0833" stroke="#111336" stroke-width="1.5" stroke-linecap="round" stroke-linejoin="round"/>
<path d="M2.08333 10.2027C2.08333 6.57162 2.08333 4.75607 3.12677 3.62803C4.1702 2.5 5.84957 2.5 9.20833 2.5H10.7917C14.1504 2.5 15.8298 2.5 16.8732 3.62803C17.9167 4.75607 17.9167 6.57162 17.9167 10.2027V10.6307C17.9167 14.2618 17.9167 16.0773 16.8732 17.2053C15.8298 18.3333 14.1504 18.3333 10.7917 18.3333H9.20833C5.84957 18.3333 4.1702 18.3333 3.12677 17.2053C2.08333 16.0773 2.08333 14.2618 2.08333 10.6307V10.2027Z" stroke="#111336" stroke-width="1.5" stroke-linecap="round" stroke-linejoin="round"/>
<path d="M2.5 6.66666H17.5" stroke="#111336" stroke-width="1.5" stroke-linecap="round" stroke-linejoin="round"/>
</svg>
