<svg width="37" height="36" viewBox="0 0 37 36" fill="none" xmlns="http://www.w3.org/2000/svg">
<mask id="mask0_1628_1932" style="mask-type:luminance" maskUnits="userSpaceOnUse" x="4" y="7" width="29" height="22">
<path d="M18.25 7.98002H9.39251C8.68335 7.98001 7.98115 8.11989 7.32612 8.39164C6.67109 8.66339 6.07609 9.06167 5.57519 9.56368C5.07429 10.0657 4.67734 10.6615 4.40704 11.3172C4.13675 11.9728 3.99844 12.6753 4.00001 13.3845V22.6275C4.00001 24.0577 4.56815 25.4293 5.57944 26.4406C6.08018 26.9413 6.67464 27.3385 7.32889 27.6095C7.98314 27.8805 8.68436 28.02 9.39251 28.02H18.25C19.6802 28.02 21.0518 27.4518 22.0631 26.4406C23.0744 25.4293 23.6425 24.0577 23.6425 22.6275V13.386C23.6447 12.6765 23.5068 11.9736 23.2367 11.3175C22.9667 10.6615 22.5698 10.0651 22.0688 9.5628C21.5679 9.06043 20.9727 8.66189 20.3173 8.39002C19.662 8.11816 18.9595 7.97831 18.25 7.97852M32.5 14.157V21.8595C32.5 22.2345 32.3935 22.6035 32.1925 22.9215C31.989 23.2404 31.7007 23.4965 31.36 23.661C31.0216 23.8304 30.6404 23.8951 30.265 23.847C29.895 23.8026 29.5439 23.6585 29.2495 23.43L24.412 19.548C24.1797 19.3568 23.9918 19.1172 23.8615 18.846C23.7312 18.5747 23.6616 18.2784 23.6575 17.9775C23.6575 17.6775 23.725 17.382 23.857 17.115C23.995 16.863 24.184 16.6425 24.412 16.467L29.2495 12.6165C29.544 12.3871 29.8957 12.2428 30.2665 12.1995C30.6415 12.1515 31.0225 12.216 31.36 12.384C31.6955 12.545 31.9798 12.796 32.1811 13.1091C32.3824 13.4221 32.4928 13.7849 32.5 14.157Z" fill="white"/>
</mask>
<g mask="url(#mask0_1628_1932)">
<path d="M18.25 9.98002C19.3546 9.98002 20.25 9.08459 20.25 7.98002C20.25 6.87545 19.3546 5.98002 18.25 5.98002V9.98002ZM4.00001 13.3845H6.00002L6.00001 13.38L4.00001 13.3845ZM23.6425 13.386L21.6425 13.3799V13.386H23.6425ZM18.2494 5.97852C17.1449 5.97883 16.2497 6.87451 16.25 7.97908C16.2503 9.08365 17.146 9.97883 18.2506 9.97852L18.2494 5.97852ZM32.5 14.157H34.5C34.5 14.144 34.4999 14.131 34.4996 14.118L32.5 14.157ZM32.1925 22.9215L33.8784 23.9975L33.8831 23.9901L32.1925 22.9215ZM31.36 23.661L30.4903 21.86C30.4818 21.8641 30.4733 21.8683 30.4648 21.8725L31.36 23.661ZM30.265 23.847L30.5194 21.8632C30.5139 21.8625 30.5085 21.8618 30.503 21.8612L30.265 23.847ZM29.2495 23.43L27.9978 24.9898C28.0062 24.9966 28.0147 25.0033 28.0232 25.0099L29.2495 23.43ZM24.412 19.548L23.1412 21.0923C23.1475 21.0975 23.1539 21.1027 23.1603 21.1078L24.412 19.548ZM23.6575 17.9775H21.6575C21.6575 17.9865 21.6576 17.9955 21.6577 18.0044L23.6575 17.9775ZM23.857 17.115L22.1028 16.1544C22.0894 16.1788 22.0765 16.2036 22.0641 16.2286L23.857 17.115ZM24.412 16.467L25.6319 18.0518C25.6405 18.0452 25.6491 18.0385 25.6576 18.0318L24.412 16.467ZM29.2495 12.6165L28.0203 11.0388C28.0148 11.0431 28.0094 11.0474 28.004 11.0517L29.2495 12.6165ZM30.2665 12.1995L30.4987 14.186C30.5059 14.1851 30.5132 14.1842 30.5204 14.1833L30.2665 12.1995ZM31.36 12.384L30.4688 14.1744C30.4774 14.1787 30.486 14.1829 30.4947 14.1871L31.36 12.384ZM18.25 5.98002H9.39251V9.98002H18.25V5.98002ZM9.39251 5.98002C8.42032 5.98001 7.4577 6.17177 6.55973 6.54431L8.09251 10.2389C8.5046 10.068 8.94636 9.98001 9.39251 9.98002V5.98002ZM6.55973 6.54431C5.66175 6.91684 4.84608 7.46284 4.15941 8.15104L6.99098 10.9763C7.3061 10.6605 7.68042 10.4099 8.09251 10.2389L6.55973 6.54431ZM4.15941 8.15104C3.47273 8.83924 2.92855 9.65613 2.55801 10.5549L6.25608 12.0795C6.42612 11.667 6.67585 11.2921 6.99098 10.9763L4.15941 8.15104ZM2.55801 10.5549C2.18747 11.4537 1.99785 12.4168 2.00002 13.3889L6.00001 13.38C5.99902 12.9339 6.08603 12.4919 6.25608 12.0795L2.55801 10.5549ZM2.00001 13.3845V22.6275H6.00001L6.00002 13.3845H2.00001ZM2.00001 22.6275C2.00001 24.5881 2.77886 26.4684 4.16523 27.8548L6.99365 25.0263C6.35744 24.3901 6.00001 23.5272 6.00001 22.6275H2.00001ZM4.16523 27.8548C4.85168 28.5412 5.66662 29.0858 6.56353 29.4573L8.09426 25.7617C7.68266 25.5913 7.30868 25.3414 6.99365 25.0263L4.16523 27.8548ZM6.56353 29.4573C7.46043 29.8288 8.42172 30.02 9.39251 30.02V26.02C8.947 26.02 8.50586 25.9322 8.09426 25.7617L6.56353 29.4573ZM9.39251 30.02H18.25V26.02H9.39251V30.02ZM18.25 30.02C20.2106 30.02 22.0909 29.2411 23.4773 27.8548L20.6489 25.0263C20.0127 25.6626 19.1498 26.02 18.25 26.02V30.02ZM23.4773 27.8548C24.8637 26.4684 25.6425 24.5881 25.6425 22.6275H21.6425C21.6425 23.5272 21.2851 24.3901 20.6489 25.0263L23.4773 27.8548ZM25.6425 22.6275V13.386H21.6425V22.6275H25.6425ZM25.6425 13.3921C25.6455 12.4194 25.4564 11.4557 25.0862 10.5563L21.3873 12.0788C21.5572 12.4915 21.6439 12.9336 21.6425 13.3799L25.6425 13.3921ZM25.0862 10.5563C24.716 9.65684 24.1719 8.8393 23.485 8.15055L20.6527 10.975C20.9678 11.291 21.2174 11.6661 21.3873 12.0788L25.0862 10.5563ZM23.485 8.15055C22.7982 7.46181 21.9822 6.91541 21.0837 6.54269L19.5509 10.2373C19.9632 10.4083 20.3375 10.659 20.6527 10.975L23.485 8.15055ZM21.0837 6.54269C20.1853 6.16996 19.2221 5.97824 18.2494 5.97852L18.2506 9.97852C18.6968 9.97839 19.1387 10.0663 19.5509 10.2373L21.0837 6.54269ZM30.5 14.157V21.8595H34.5V14.157H30.5ZM30.5 21.8595C30.5 21.8577 30.5002 21.8567 30.5004 21.856C30.5006 21.8554 30.501 21.8544 30.5019 21.8529L33.8831 23.9901C34.2866 23.3518 34.5 22.6122 34.5 21.8595H30.5ZM30.5066 21.8455C30.5026 21.8517 30.497 21.8568 30.4903 21.86L32.2297 25.462C32.9045 25.1362 33.4753 24.6291 33.8784 23.9975L30.5066 21.8455ZM30.4648 21.8725C30.4817 21.8641 30.5007 21.8608 30.5194 21.8632L30.0106 25.8307C30.7801 25.9294 31.5615 25.7967 32.2552 25.4495L30.4648 21.8725ZM30.503 21.8612C30.4931 21.86 30.4837 21.8561 30.4758 21.85L28.0232 25.0099C28.6042 25.4609 29.2969 25.7453 30.0271 25.8328L30.503 21.8612ZM30.5013 21.8701L25.6638 17.9881L23.1603 21.1078L27.9978 24.9898L30.5013 21.8701ZM25.6828 18.0036C25.675 17.9972 25.6686 17.9891 25.6642 17.9799L22.0587 19.7121C22.3149 20.2454 22.6843 20.7164 23.1412 21.0923L25.6828 18.0036ZM25.6642 17.9799C25.6598 17.9707 25.6575 17.9607 25.6573 17.9505L21.6577 18.0044C21.6657 18.596 21.8025 19.1788 22.0587 19.7121L25.6642 17.9799ZM25.6575 17.9775C25.6575 17.9777 25.6575 17.9784 25.6574 17.9788C25.6573 17.9798 25.6571 17.9812 25.6566 17.9832C25.6557 17.9872 25.6538 17.9934 25.6499 18.0013L22.0641 16.2286C21.7923 16.7785 21.6575 17.3782 21.6575 17.9775H25.6575ZM25.6112 18.0756C25.6157 18.0675 25.6224 18.0592 25.6319 18.0518L23.1921 14.8821C22.7457 15.2257 22.3744 15.6585 22.1028 16.1544L25.6112 18.0756ZM25.6576 18.0318L30.4951 14.1813L28.004 11.0517L23.1665 14.9022L25.6576 18.0318ZM30.4787 14.1941C30.4845 14.1896 30.4914 14.1868 30.4987 14.186L30.0343 10.213C29.3001 10.2988 28.6034 10.5845 28.0203 11.0388L30.4787 14.1941ZM30.5204 14.1833C30.503 14.1855 30.4854 14.1827 30.4688 14.1744L32.2513 10.5935C31.5596 10.2492 30.7801 10.1174 30.0126 10.2157L30.5204 14.1833ZM30.4947 14.1871C30.4964 14.1879 30.4978 14.1892 30.4988 14.1907L33.8633 12.0274C33.4618 11.4029 32.8947 10.9021 32.2253 10.5809L30.4947 14.1871ZM30.4988 14.1907C30.4998 14.1923 30.5004 14.1941 30.5004 14.1959L34.4996 14.118C34.4852 13.3757 34.2649 12.6519 33.8633 12.0274L30.4988 14.1907Z" fill="white"/>
</g>
</svg>
