<svg width="18" height="18" viewBox="0 0 18 18" fill="none" xmlns="http://www.w3.org/2000/svg">
<path d="M9 18C13.9706 18 18 13.9706 18 9C18 4.02944 13.9706 0 9 0C4.02944 0 0 4.02944 0 9C0 13.9706 4.02944 18 9 18Z" fill="#F1B32B"/>
<path d="M8.85938 2.25C5.20875 2.25 2.25 5.20875 2.25 8.85938C2.25 12.51 5.20875 15.4688 8.85938 15.4688C12.51 15.4688 15.4688 12.51 15.4688 8.85938C15.4688 7.10646 14.7724 5.42534 13.5329 4.18584C12.2934 2.94634 10.6123 2.25 8.85938 2.25ZM8.85938 13.8206C7.54357 13.8206 6.28166 13.2979 5.35124 12.3675C4.42083 11.4371 3.89812 10.1752 3.89812 8.85938C3.89812 7.54357 4.42083 6.28166 5.35124 5.35124C6.28166 4.42083 7.54357 3.89812 8.85938 3.89812C10.1752 3.89812 11.4371 4.42083 12.3675 5.35124C13.2979 6.28166 13.8206 7.54357 13.8206 8.85938C13.8206 10.1752 13.2979 11.4371 12.3675 12.3675C11.4371 13.2979 10.1752 13.8206 8.85938 13.8206ZM7.21125 8.865L8.865 11.34L10.5075 8.865L8.865 6.38438L7.21125 8.865Z" fill="white"/>
</svg>
