<svg width="20" height="20" viewBox="0 0 20 20" fill="none" xmlns="http://www.w3.org/2000/svg">
<path d="M7.49958 18.3333L7.29073 15.4093C7.17843 13.8372 8.4235 12.5 9.99958 12.5C11.5757 12.5 12.8208 13.8372 12.7084 15.4093L12.4996 18.3333" stroke="#111336" stroke-width="1.5"/>
<path d="M1.95964 11.0112C1.66546 9.09683 1.51837 8.13969 1.88029 7.29115C2.24221 6.4426 3.04517 5.86202 4.6511 4.70088L5.85098 3.83333C7.84873 2.38889 8.84758 1.66666 10.0002 1.66666C11.1527 1.66666 12.1516 2.38889 14.1493 3.83333L15.3492 4.70088C16.9552 5.86202 17.7581 6.4426 18.12 7.29115C18.4819 8.13969 18.3348 9.09683 18.0407 11.0112L17.7898 12.6437C17.3727 15.3574 17.1642 16.7143 16.191 17.5238C15.2177 18.3333 13.7948 18.3333 10.9492 18.3333H9.05117C6.20543 18.3333 4.78257 18.3333 3.80932 17.5238C2.83606 16.7143 2.62754 15.3574 2.21051 12.6437L1.95964 11.0112Z" stroke="#111336" stroke-width="1.5" stroke-linejoin="round"/>
</svg>
