<svg width="30" height="24" viewBox="0 0 30 24" fill="none" xmlns="http://www.w3.org/2000/svg">
<g clip-path="url(#clip0_1626_1934)">
<path d="M29 21C29.5523 21 30 21.4477 30 22V23C30 23.5523 29.5523 24 29 24H1C0.447716 24 0 23.5523 0 23V22C0 21.4477 0.447715 21 1 21H29ZM0 1.05425C0 0.268812 0.863951 -0.210031 1.53 0.206249L10.6432 5.902C11.2699 6.29367 11.2699 7.20633 10.6432 7.598L1.53 13.2938C0.863951 13.71 0 13.2312 0 12.4458V1.05425ZM29 10.5C29.5523 10.5 30 10.9477 30 11.5V12.5C30 13.0523 29.5523 13.5 29 13.5H16C15.4477 13.5 15 13.0523 15 12.5V11.5C15 10.9477 15.4477 10.5 16 10.5H29ZM29 0C29.5523 0 30 0.447715 30 1V2C30 2.55228 29.5523 3 29 3H16C15.4477 3 15 2.55228 15 2V1C15 0.447715 15.4477 0 16 0H29Z" fill="black"/>
</g>
<defs>
<clipPath id="clip0_1626_1934">
<rect width="30" height="24" fill="white"/>
</clipPath>
</defs>
</svg>
