<svg width="36" height="36" viewBox="0 0 36 36" fill="none" xmlns="http://www.w3.org/2000/svg">
<path d="M15.6041 23.463V24.3889C15.6041 25.1256 15.9004 25.8321 16.4279 26.3531C16.9553 26.874 17.6707 27.1667 18.4166 27.1667C19.1625 27.1667 19.8779 26.874 20.4054 26.3531C20.9328 25.8321 21.2291 25.1256 21.2291 24.3889V23.463M16.5416 12.3519C16.5416 11.8607 16.7392 11.3897 17.0908 11.0424C17.4424 10.6951 17.9193 10.5 18.4166 10.5C18.9139 10.5 19.3908 10.6951 19.7425 11.0424C20.0941 11.3897 20.2916 11.8607 20.2916 12.3519C21.3683 12.8547 22.2861 13.6373 22.9467 14.616C23.6073 15.5947 23.9858 16.7325 24.0416 17.9074V20.6852C24.1122 21.2608 24.3186 21.8121 24.6443 22.2946C24.9699 22.777 25.4057 23.1772 25.9166 23.463H10.9166C11.4275 23.1772 11.8633 22.777 12.189 22.2946C12.5147 21.8121 12.7211 21.2608 12.7916 20.6852V17.9074C12.8475 16.7325 13.226 15.5947 13.8866 14.616C14.5472 13.6373 15.465 12.8547 16.5416 12.3519Z" stroke="#111336" stroke-width="1.5" stroke-linecap="round" stroke-linejoin="round"/>
<circle cx="23.5" cy="14" r="3.5" fill="#E94057" stroke="white"/>
</svg>
