<svg width="21" height="20" viewBox="0 0 21 20" fill="none" xmlns="http://www.w3.org/2000/svg">
<path d="M9.08301 15.0001L7.41634 16.6668H4.08301V13.3334L12.833 4.58342C13.0519 4.36455 13.3117 4.19094 13.5977 4.07248C13.8836 3.95403 14.1901 3.89307 14.4997 3.89307C14.8092 3.89307 15.1157 3.95403 15.4017 4.07248C15.6876 4.19094 15.9475 4.36455 16.1663 4.58342C16.3852 4.80229 16.5588 5.06213 16.6773 5.3481C16.7957 5.63406 16.8567 5.94056 16.8567 6.25009C16.8567 6.55962 16.7957 6.86612 16.6773 7.15208C16.5588 7.43805 16.3852 7.69789 16.1663 7.91676L15.333 8.75009L11.9997 5.41676M15.583 17.3476L13.773 18.2959C13.7193 18.3239 13.6589 18.3364 13.5985 18.332C13.5381 18.3276 13.4801 18.3065 13.431 18.271C13.3819 18.2356 13.3436 18.1872 13.3204 18.1313C13.2972 18.0753 13.2901 18.014 13.2997 17.9543L13.6455 15.9451L12.1813 14.5226C12.1376 14.4803 12.1067 14.4267 12.092 14.3677C12.0774 14.3087 12.0796 14.2467 12.0985 14.189C12.1173 14.1312 12.1521 14.0799 12.1987 14.0409C12.2453 14.0019 12.302 13.9768 12.3622 13.9684L14.3855 13.6751L15.2905 11.8476C15.3176 11.7932 15.3593 11.7474 15.411 11.7153C15.4626 11.6833 15.5222 11.6664 15.583 11.6664C15.6438 11.6664 15.7034 11.6833 15.7551 11.7153C15.8067 11.7474 15.8484 11.7932 15.8755 11.8476L16.7805 13.6751L18.8038 13.9684C18.8639 13.9771 18.9203 14.0023 18.9667 14.0414C19.0131 14.0804 19.0477 14.1316 19.0665 14.1893C19.0853 14.247 19.0877 14.3087 19.0732 14.3676C19.0587 14.4265 19.0281 14.4802 18.9847 14.5226L17.5205 15.9451L17.8655 17.9534C17.8759 18.0133 17.8692 18.0749 17.8463 18.1312C17.8234 18.1875 17.7852 18.2363 17.736 18.2719C17.6868 18.3076 17.6286 18.3288 17.5679 18.333C17.5073 18.3372 17.4467 18.3244 17.393 18.2959L15.583 17.3476Z" stroke="#111336" stroke-width="1.5" stroke-linecap="round" stroke-linejoin="round"/>
</svg>
