<svg width="21" height="20" viewBox="0 0 21 20" fill="none" xmlns="http://www.w3.org/2000/svg">
<path d="M1.5 5.36625L4.36625 2.5H6.13375L1.5 7.13375V5.36625ZM1.5 11.5088V9.74125L8.74125 2.5H10.5087L8.595 4.41375C7.68036 4.82345 6.94845 5.55536 6.53875 6.47L1.5 11.5088ZM1.5 14.1163L6.35 9.26625C6.47625 9.6975 6.67188 10.1 6.925 10.4594L5.34687 12.0369C5.13164 12.1926 4.9426 12.3816 4.78687 12.5969L1.53562 15.8488C1.51203 15.7235 1.5001 15.5962 1.5 15.4688V14.1163ZM11.3913 4.225C11.8225 4.35125 12.225 4.54688 12.5844 4.8L14.8844 2.5H13.1156L11.3913 4.225ZM13.815 6.17563C14.0363 6.57875 14.19 7.02375 14.2638 7.49438L18.5288 3.23C18.2474 2.89266 17.8643 2.6556 17.4369 2.55437L13.815 6.17563ZM2.67812 17.3131L4.3125 15.6788V17.4463L4.25875 17.5H3.53125C3.23653 17.5011 2.94521 17.4377 2.67812 17.3131ZM13.6875 11.5625C13.9544 11.5625 14.2113 11.6044 14.4525 11.6813L19 7.13438V5.36625L12.8038 11.5625H13.6875ZM16.1875 14.0625V14.3213L19 11.5088V9.74125L15.8806 12.8606C16.0763 13.2169 16.1875 13.6269 16.1875 14.0625ZM16.9688 17.5H16.1875V16.9288L19 14.1163V15.4688C19 15.6308 18.9819 15.7875 18.9456 15.9388L17.4388 17.445C17.2847 17.4813 17.127 17.4998 16.9688 17.5ZM6.8125 13.75C6.72962 13.75 6.65013 13.7829 6.59153 13.8415C6.53292 13.9001 6.5 13.9796 6.5 14.0625V17.5H5.25V14.0625C5.25 13.6481 5.41462 13.2507 5.70765 12.9576C6.00067 12.6646 6.3981 12.5 6.8125 12.5H13.6875C13.8927 12.5 14.0959 12.5404 14.2854 12.6189C14.475 12.6975 14.6473 12.8126 14.7924 12.9576C14.9374 13.1027 15.0525 13.275 15.1311 13.4646C15.2096 13.6541 15.25 13.8573 15.25 14.0625V17.5H14V14.0625C14 13.9796 13.9671 13.9001 13.9085 13.8415C13.8499 13.7829 13.7704 13.75 13.6875 13.75H6.8125ZM8.375 8.125C8.375 7.62772 8.57254 7.15081 8.92417 6.79917C9.27581 6.44754 9.75272 6.25 10.25 6.25C10.7473 6.25 11.2242 6.44754 11.5758 6.79917C11.9275 7.15081 12.125 7.62772 12.125 8.125C12.125 8.62228 11.9275 9.0992 11.5758 9.45083C11.2242 9.80246 10.7473 10 10.25 10C9.75272 10 9.27581 9.80246 8.92417 9.45083C8.57254 9.0992 8.375 8.62228 8.375 8.125ZM10.25 5C9.4212 5 8.62634 5.32924 8.04029 5.91529C7.45424 6.50134 7.125 7.2962 7.125 8.125C7.125 8.9538 7.45424 9.74866 8.04029 10.3347C8.62634 10.9208 9.4212 11.25 10.25 11.25C11.0788 11.25 11.8737 10.9208 12.4597 10.3347C13.0458 9.74866 13.375 8.9538 13.375 8.125C13.375 7.2962 13.0458 6.50134 12.4597 5.91529C11.8737 5.32924 11.0788 5 10.25 5Z" fill="#111336"/>
</svg>
