<svg width="20" height="20" viewBox="0 0 20 20" fill="none" xmlns="http://www.w3.org/2000/svg">
<g clip-path="url(#clip0_45_1446)">
<path d="M9.89429 18.86L5.60857 19.2314L5.98 14.9457L14.8943 6.08856C15.0273 5.9525 15.1862 5.84439 15.3616 5.77057C15.537 5.69676 15.7254 5.65874 15.9157 5.65874C16.106 5.65874 16.2944 5.69676 16.4698 5.77057C16.6452 5.84439 16.8041 5.9525 16.9371 6.08856L18.7514 7.91713C18.8853 8.04994 18.9916 8.20794 19.0641 8.38203C19.1367 8.55611 19.174 8.74283 19.174 8.93142C19.174 9.12001 19.1367 9.30673 19.0641 9.48082C18.9916 9.6549 18.8853 9.8129 18.7514 9.94571L9.89429 18.86ZM1.20286 5.67428C0.701429 5.58713 0.701429 4.86714 1.20286 4.77999C2.09039 4.62475 2.91171 4.2091 3.56241 3.58587C4.21311 2.96265 4.66378 2.16001 4.85714 1.27999L4.88714 1.14142C4.99571 0.647136 5.70143 0.64285 5.81571 1.13856L5.85143 1.29856C6.05062 2.17524 6.50467 2.97342 7.15644 3.59264C7.8082 4.21187 8.62856 4.62449 9.51429 4.77856C10.0186 4.86428 10.0186 5.58856 9.51429 5.67714C8.62849 5.83085 7.80795 6.24314 7.15593 6.86212C6.50391 7.48109 6.04954 8.2791 5.85 9.15571L5.81286 9.31713C5.7 9.81142 4.99429 9.80856 4.88571 9.31285L4.85714 9.17428C4.66359 8.29387 4.21249 7.49095 3.56124 6.86769C2.91 6.24443 2.08805 5.829 1.2 5.67428H1.20286Z" stroke="#111336" stroke-width="1.5" stroke-linecap="round" stroke-linejoin="round"/>
</g>
<defs>
<clipPath id="clip0_45_1446">
<rect width="20" height="20" fill="white"/>
</clipPath>
</defs>
</svg>
